<?xml version="1.0" standalone="no"?>
<!-- Creator: fig2dev Version 3.2.7 -->
<!-- CreationDate: 2020-05-13 14:28:47 -->
<!-- Magnification: 1.05 -->
<svg	xmlns="http://www.w3.org/2000/svg"
	xmlns:xlink="http://www.w3.org/1999/xlink"
	width="756pt" height="341pt"
	viewBox="705 2008 12001 5404">
<g fill="none">
<!-- Line -->
<polyline points=" 4755,4050 7080,4050"
	stroke="#000000" stroke-width="15px"/>
<!-- Line -->
<polyline points=" 4050,5040 7830,5040"
	stroke="#000000" stroke-width="15px"/>
<!-- Line -->
<polyline points=" 8715,6225"
	stroke="#000000" stroke-width="8px"/>
<!-- Line -->
<polyline points=" 3180,6165 8685,6165"
	stroke="#000000" stroke-width="15px"/>
<!-- Line -->
<polyline points=" 5940,7335 2295,7335"
	stroke="#000000" stroke-width="30px"/>
<!-- Line -->
<polyline points=" 9585,7335 5940,7335"
	stroke="#000000" stroke-width="30px"/>
<!-- Line -->
<polyline points=" 5940,2520 9585,7335"
	stroke="#000000" stroke-width="30px"/>
<!-- Line -->
<polyline points=" 5940,2520 2295,7335"
	stroke="#000000" stroke-width="30px"/>
<!-- Line -->
<defs>
<clipPath id="cp0">
	<path clip-rule="evenodd" d="M 705,2008 H 12706 V 7412 H 705 z
		M 9945,2536 9990,2498 10035,2536 10061,2536 10061,2045 9920,2045 9920,2536z"/>
</clipPath>
</defs>
<polyline points=" 9990,7290 9990,2115" clip-path="url(#cp0)"
	stroke="#ff0000" stroke-width="135px"/>
<!-- Forward arrow to point 9990,2115 -->
<polygon points=" 10035,2536 9990,2348 9945,2536 9990,2498 10035,2536"
	stroke="#ff0000" stroke-width="105px" stroke-miterlimit="8" fill="#ff0000"/>
<!-- Line -->
<defs>
<clipPath id="cp1">
	<path clip-rule="evenodd" d="M 705,2008 H 12706 V 7412 H 705 z
		M 9945,2536 9990,2498 10035,2536 10061,2536 10061,2045 9920,2045 9920,2536z
		M 1980,2551 2025,2513 2070,2551 2096,2551 2096,2060 1955,2060 1955,2551z"/>
</clipPath>
</defs>
<polyline points=" 2025,2130 2025,7305" clip-path="url(#cp1)"
	stroke="#0000b0" stroke-width="135px"/>
<!-- Backward arrow to point 2025,2130 -->
<polygon points=" 2070,2551 2025,2363 1980,2551 2025,2513 2070,2551"
	stroke="#0000b0" stroke-width="105px" stroke-miterlimit="8" fill="#0000b0"/>
<!-- Text -->
<text xml:space="preserve" x="7650" y="4725" fill="#000000" font-family="Times" font-style="normal" font-weight="bold" font-size="216" text-anchor="start">~  ns</text>
<!-- Text -->
<text xml:space="preserve" x="10215" y="4905" fill="#000000" font-family="New Century Schoolbook" font-style="normal" font-weight="bold" font-size="216" text-anchor="start">Geschwindigkeit</text>
<!-- Text -->
<text xml:space="preserve" x="9210" y="6780" fill="#000000" font-family="Times" font-style="normal" font-weight="bold" font-size="216" text-anchor="start">~ ms</text>
<!-- Text -->
<text xml:space="preserve" x="4680" y="6735" fill="#000000" font-family="Times" font-style="normal" font-weight="bold" font-size="216" text-anchor="start">Hintergrund-Speicher</text>
<!-- Text -->
<text xml:space="preserve" x="5130" y="5610" fill="#000000" font-family="Times" font-style="normal" font-weight="bold" font-size="216" text-anchor="start">Hauptspeicher</text>
<!-- Text -->
<text xml:space="preserve" x="8400" y="5625" fill="#000000" font-family="Times" font-style="normal" font-weight="bold" font-size="216" text-anchor="start">60-70 ns</text>
<!-- Text -->
<text xml:space="preserve" x="5580" y="4695" fill="#000000" font-family="Times" font-style="normal" font-weight="bold" font-size="216" text-anchor="start">Cache</text>
<!-- Text -->
<text xml:space="preserve" x="5460" y="3645" fill="#000000" font-family="Times" font-style="normal" font-weight="bold" font-size="216" text-anchor="start">Register</text>
<!-- Text -->
<text xml:space="preserve" x="7080" y="3600" fill="#000000" font-family="Times" font-style="normal" font-weight="bold" font-size="216" text-anchor="start">&#60; 1 ns</text>
<!-- Text -->
<text xml:space="preserve" x="720" y="4905" fill="#000000" font-family="New Century Schoolbook" font-style="normal" font-weight="bold" font-size="216" text-anchor="start">Kosten</text>
</g>
</svg>
