<?xml version="1.0" standalone="no"?>
<!-- Creator: fig2dev Version 3.2.7 -->
<!-- CreationDate: 2020-05-07 02:02:14 -->
<!-- Magnification: 1.05 -->
<svg	xmlns="http://www.w3.org/2000/svg"
	xmlns:xlink="http://www.w3.org/1999/xlink"
	width="356pt" height="146pt"
	viewBox="2580 1767 5651 2313">
<g fill="none">
<!-- Circle -->
<circle cx="5625" cy="3825" r="218"
	stroke="#0000ff" stroke-width="30px"/>
<!-- Circle -->
<circle cx="3825" cy="3825" r="218"
	stroke="#0000ff" stroke-width="30px"/>
<!-- Circle -->
<circle cx="4725" cy="3825" r="218"
	stroke="#0000ff" stroke-width="30px"/>
<!-- Circle -->
<circle cx="6495" cy="3840" r="218"
	stroke="#0000ff" stroke-width="30px"/>
<!-- Circle -->
<circle cx="7395" cy="3840" r="218"
	stroke="#0000ff" stroke-width="30px"/>
<!-- Line -->
<rect x="5400" y="2700" width="450" height="450"
	stroke="#008f00" stroke-width="30px"/>
<!-- Line -->
<polyline points=" 5610,2250 5610,2700"
	stroke="#000000" stroke-width="15px"/>
<!-- Line -->
<rect x="5400" y="1800" width="450" height="450"
	stroke="#ff0000" stroke-width="30px"/>
<!-- Line -->
<polyline points=" 5612,2268 4264,2701"
	stroke="#000000" stroke-width="15px"/>
<!-- Line -->
<polyline points=" 5625,3150 5625,3600"
	stroke="#000000" stroke-width="15px"/>
<!-- Line -->
<rect x="4065" y="2715" width="450" height="450"
	stroke="#008f00" stroke-width="30px"/>
<!-- Line -->
<polyline points=" 4305,3180 3810,3585"
	stroke="#000000" stroke-width="15px"/>
<!-- Line -->
<polyline points=" 4803,3602 4318,3182"
	stroke="#000000" stroke-width="15px"/>
<!-- Line -->
<rect x="6735" y="2730" width="450" height="450"
	stroke="#008f00" stroke-width="30px"/>
<!-- Line -->
<polyline points=" 6975,3195 6480,3600"
	stroke="#000000" stroke-width="15px"/>
<!-- Line -->
<polyline points=" 7473,3617 6988,3197"
	stroke="#000000" stroke-width="15px"/>
<!-- Line -->
<polyline points=" 5618,2266 6966,2708"
	stroke="#000000" stroke-width="15px"/>
<!-- Text -->
<text xml:space="preserve" x="5940" y="2085" fill="#ff0000" font-family="Times" font-style="normal" font-weight="bold" font-size="216" text-anchor="start">Wurzelverzeichnis</text>
<!-- Text -->
<text xml:space="preserve" x="2895" y="4035" fill="#0000ff" font-family="Times" font-style="normal" font-weight="bold" font-size="216" text-anchor="start">Datei</text>
<!-- Text -->
<text xml:space="preserve" x="2595" y="3000" fill="#008f00" font-family="Times" font-style="normal" font-weight="bold" font-size="216" text-anchor="start">Verzeichnis</text>
</g>
</svg>
